<mxfile host="app.diagrams.net" modified="2023-09-22T17:01:36.054Z" agent="Mozilla/5.0 (Macintosh; Intel Mac OS X 10_15_7) AppleWebKit/537.36 (KHTML, like Gecko) Chrome/117.0.0.0 Safari/537.36" etag="GlSZAF4tJhvKvWvaO-VE" version="21.8.0" type="github">
  <diagram id="C5RBs43oDa-KdzZeNtuy" name="Page-1">
    <mxGraphModel dx="1170" dy="1133" grid="1" gridSize="10" guides="1" tooltips="1" connect="1" arrows="1" fold="1" page="0" pageScale="1" pageWidth="827" pageHeight="1169" math="0" shadow="0">
      <root>
        <mxCell id="WIyWlLk6GJQsqaUBKTNV-0" />
        <mxCell id="WIyWlLk6GJQsqaUBKTNV-1" parent="WIyWlLk6GJQsqaUBKTNV-0" />
        <mxCell id="ciXfzytu2ipYOKKYLOWv-5" style="edgeStyle=orthogonalEdgeStyle;rounded=0;hachureGap=4;orthogonalLoop=1;jettySize=auto;html=1;fontFamily=Architects Daughter;fontSource=https%3A%2F%2Ffonts.googleapis.com%2Fcss%3Ffamily%3DArchitects%2BDaughter;fontSize=16;" edge="1" parent="WIyWlLk6GJQsqaUBKTNV-1" source="ciXfzytu2ipYOKKYLOWv-3" target="ciXfzytu2ipYOKKYLOWv-4">
          <mxGeometry relative="1" as="geometry" />
        </mxCell>
        <mxCell id="ciXfzytu2ipYOKKYLOWv-3" value="&lt;font face=&quot;Helvetica&quot;&gt;Початок&lt;/font&gt;" style="rounded=1;whiteSpace=wrap;html=1;hachureGap=4;fontFamily=Architects Daughter;fontSource=https%3A%2F%2Ffonts.googleapis.com%2Fcss%3Ffamily%3DArchitects%2BDaughter;fontSize=20;" vertex="1" parent="WIyWlLk6GJQsqaUBKTNV-1">
          <mxGeometry x="380" y="-40" width="110" height="50" as="geometry" />
        </mxCell>
        <mxCell id="ciXfzytu2ipYOKKYLOWv-7" style="edgeStyle=orthogonalEdgeStyle;rounded=0;hachureGap=4;orthogonalLoop=1;jettySize=auto;html=1;fontFamily=Architects Daughter;fontSource=https%3A%2F%2Ffonts.googleapis.com%2Fcss%3Ffamily%3DArchitects%2BDaughter;fontSize=16;" edge="1" parent="WIyWlLk6GJQsqaUBKTNV-1" source="ciXfzytu2ipYOKKYLOWv-4" target="ciXfzytu2ipYOKKYLOWv-6">
          <mxGeometry relative="1" as="geometry" />
        </mxCell>
        <mxCell id="ciXfzytu2ipYOKKYLOWv-4" value="&lt;font style=&quot;font-size: 13px;&quot; face=&quot;Helvetica&quot;&gt;Ініціалізація змінних m1, m2, r&lt;/font&gt;" style="rounded=0;whiteSpace=wrap;html=1;hachureGap=4;fontFamily=Architects Daughter;fontSource=https%3A%2F%2Ffonts.googleapis.com%2Fcss%3Ffamily%3DArchitects%2BDaughter;fontSize=20;" vertex="1" parent="WIyWlLk6GJQsqaUBKTNV-1">
          <mxGeometry x="375" y="50" width="120" height="60" as="geometry" />
        </mxCell>
        <mxCell id="ciXfzytu2ipYOKKYLOWv-10" style="edgeStyle=orthogonalEdgeStyle;rounded=0;hachureGap=4;orthogonalLoop=1;jettySize=auto;html=1;fontFamily=Architects Daughter;fontSource=https%3A%2F%2Ffonts.googleapis.com%2Fcss%3Ffamily%3DArchitects%2BDaughter;fontSize=16;" edge="1" parent="WIyWlLk6GJQsqaUBKTNV-1" source="ciXfzytu2ipYOKKYLOWv-6" target="ciXfzytu2ipYOKKYLOWv-8">
          <mxGeometry relative="1" as="geometry" />
        </mxCell>
        <mxCell id="ciXfzytu2ipYOKKYLOWv-6" value="&lt;font face=&quot;Helvetica&quot; style=&quot;font-size: 15px;&quot;&gt;Основний цикл do-while&lt;/font&gt;" style="rounded=0;whiteSpace=wrap;html=1;hachureGap=4;fontFamily=Architects Daughter;fontSource=https%3A%2F%2Ffonts.googleapis.com%2Fcss%3Ffamily%3DArchitects%2BDaughter;fontSize=20;" vertex="1" parent="WIyWlLk6GJQsqaUBKTNV-1">
          <mxGeometry x="375" y="150" width="120" height="60" as="geometry" />
        </mxCell>
        <mxCell id="ciXfzytu2ipYOKKYLOWv-15" style="edgeStyle=orthogonalEdgeStyle;rounded=0;hachureGap=4;orthogonalLoop=1;jettySize=auto;html=1;fontFamily=Architects Daughter;fontSource=https%3A%2F%2Ffonts.googleapis.com%2Fcss%3Ffamily%3DArchitects%2BDaughter;fontSize=16;" edge="1" parent="WIyWlLk6GJQsqaUBKTNV-1" source="ciXfzytu2ipYOKKYLOWv-8" target="ciXfzytu2ipYOKKYLOWv-13">
          <mxGeometry relative="1" as="geometry" />
        </mxCell>
        <mxCell id="ciXfzytu2ipYOKKYLOWv-8" value="&lt;font face=&quot;Helvetica&quot; style=&quot;font-size: 15px;&quot;&gt;Введення m1&lt;/font&gt;" style="shape=parallelogram;perimeter=parallelogramPerimeter;whiteSpace=wrap;html=1;fixedSize=1;hachureGap=4;fontFamily=Architects Daughter;fontSource=https%3A%2F%2Ffonts.googleapis.com%2Fcss%3Ffamily%3DArchitects%2BDaughter;fontSize=20;" vertex="1" parent="WIyWlLk6GJQsqaUBKTNV-1">
          <mxGeometry x="375" y="250" width="120" height="60" as="geometry" />
        </mxCell>
        <mxCell id="ciXfzytu2ipYOKKYLOWv-29" style="edgeStyle=orthogonalEdgeStyle;rounded=0;hachureGap=4;orthogonalLoop=1;jettySize=auto;html=1;entryX=0.5;entryY=0;entryDx=0;entryDy=0;fontFamily=Architects Daughter;fontSource=https%3A%2F%2Ffonts.googleapis.com%2Fcss%3Ffamily%3DArchitects%2BDaughter;fontSize=16;" edge="1" parent="WIyWlLk6GJQsqaUBKTNV-1" source="ciXfzytu2ipYOKKYLOWv-13" target="ciXfzytu2ipYOKKYLOWv-28">
          <mxGeometry relative="1" as="geometry" />
        </mxCell>
        <mxCell id="ciXfzytu2ipYOKKYLOWv-13" value="&lt;font style=&quot;font-size: 15px;&quot;&gt;Перевірка на помилку&lt;/font&gt;" style="shape=hexagon;perimeter=hexagonPerimeter2;whiteSpace=wrap;html=1;fixedSize=1;hachureGap=4;fontFamily=Architects Daughter;fontSource=https%3A%2F%2Ffonts.googleapis.com%2Fcss%3Ffamily%3DArchitects%2BDaughter;fontSize=20;" vertex="1" parent="WIyWlLk6GJQsqaUBKTNV-1">
          <mxGeometry x="375" y="360" width="120" height="80" as="geometry" />
        </mxCell>
        <mxCell id="ciXfzytu2ipYOKKYLOWv-28" value="Завершення" style="rounded=0;whiteSpace=wrap;html=1;hachureGap=4;fontFamily=Architects Daughter;fontSource=https%3A%2F%2Ffonts.googleapis.com%2Fcss%3Ffamily%3DArchitects%2BDaughter;fontSize=20;" vertex="1" parent="WIyWlLk6GJQsqaUBKTNV-1">
          <mxGeometry x="560" y="450" width="120" height="60" as="geometry" />
        </mxCell>
        <mxCell id="ciXfzytu2ipYOKKYLOWv-30" value="&lt;font style=&quot;font-size: 15px;&quot; face=&quot;Helvetica&quot;&gt;Введення m2&lt;/font&gt;" style="rounded=0;whiteSpace=wrap;html=1;hachureGap=4;fontFamily=Architects Daughter;fontSource=https%3A%2F%2Ffonts.googleapis.com%2Fcss%3Ffamily%3DArchitects%2BDaughter;fontSize=20;" vertex="1" parent="WIyWlLk6GJQsqaUBKTNV-1">
          <mxGeometry x="180" y="450" width="120" height="60" as="geometry" />
        </mxCell>
        <mxCell id="ciXfzytu2ipYOKKYLOWv-33" style="edgeStyle=orthogonalEdgeStyle;rounded=0;hachureGap=4;orthogonalLoop=1;jettySize=auto;html=1;entryX=0.496;entryY=-0.035;entryDx=0;entryDy=0;entryPerimeter=0;fontFamily=Architects Daughter;fontSource=https%3A%2F%2Ffonts.googleapis.com%2Fcss%3Ffamily%3DArchitects%2BDaughter;fontSize=16;" edge="1" parent="WIyWlLk6GJQsqaUBKTNV-1" source="ciXfzytu2ipYOKKYLOWv-13" target="ciXfzytu2ipYOKKYLOWv-30">
          <mxGeometry relative="1" as="geometry" />
        </mxCell>
        <mxCell id="ciXfzytu2ipYOKKYLOWv-36" style="edgeStyle=orthogonalEdgeStyle;rounded=0;hachureGap=4;orthogonalLoop=1;jettySize=auto;html=1;entryX=0.003;entryY=0.685;entryDx=0;entryDy=0;entryPerimeter=0;fontFamily=Architects Daughter;fontSource=https%3A%2F%2Ffonts.googleapis.com%2Fcss%3Ffamily%3DArchitects%2BDaughter;fontSize=16;" edge="1" parent="WIyWlLk6GJQsqaUBKTNV-1">
          <mxGeometry relative="1" as="geometry">
            <mxPoint x="239.64" y="510" as="sourcePoint" />
            <mxPoint x="380.0000000000001" y="581.0999999999999" as="targetPoint" />
            <Array as="points">
              <mxPoint x="239.64" y="581" />
            </Array>
          </mxGeometry>
        </mxCell>
        <mxCell id="ciXfzytu2ipYOKKYLOWv-63" style="edgeStyle=orthogonalEdgeStyle;rounded=0;hachureGap=4;orthogonalLoop=1;jettySize=auto;html=1;entryX=1;entryY=0.5;entryDx=0;entryDy=0;fontFamily=Architects Daughter;fontSource=https%3A%2F%2Ffonts.googleapis.com%2Fcss%3Ffamily%3DArchitects%2BDaughter;fontSize=16;" edge="1" parent="WIyWlLk6GJQsqaUBKTNV-1" source="ciXfzytu2ipYOKKYLOWv-39" target="ciXfzytu2ipYOKKYLOWv-61">
          <mxGeometry relative="1" as="geometry">
            <Array as="points">
              <mxPoint x="620" y="790" />
            </Array>
          </mxGeometry>
        </mxCell>
        <mxCell id="ciXfzytu2ipYOKKYLOWv-39" value="Завершення" style="rounded=0;whiteSpace=wrap;html=1;hachureGap=4;fontFamily=Architects Daughter;fontSource=https%3A%2F%2Ffonts.googleapis.com%2Fcss%3Ffamily%3DArchitects%2BDaughter;fontSize=20;" vertex="1" parent="WIyWlLk6GJQsqaUBKTNV-1">
          <mxGeometry x="550" y="650" width="120" height="60" as="geometry" />
        </mxCell>
        <mxCell id="ciXfzytu2ipYOKKYLOWv-62" style="edgeStyle=orthogonalEdgeStyle;rounded=0;hachureGap=4;orthogonalLoop=1;jettySize=auto;html=1;entryX=0;entryY=0.5;entryDx=0;entryDy=0;fontFamily=Architects Daughter;fontSource=https%3A%2F%2Ffonts.googleapis.com%2Fcss%3Ffamily%3DArchitects%2BDaughter;fontSize=16;" edge="1" parent="WIyWlLk6GJQsqaUBKTNV-1" source="ciXfzytu2ipYOKKYLOWv-40" target="ciXfzytu2ipYOKKYLOWv-61">
          <mxGeometry relative="1" as="geometry">
            <Array as="points">
              <mxPoint x="240" y="790" />
            </Array>
          </mxGeometry>
        </mxCell>
        <mxCell id="ciXfzytu2ipYOKKYLOWv-40" value="&lt;font style=&quot;font-size: 15px;&quot; face=&quot;Helvetica&quot;&gt;Введення R&lt;/font&gt;" style="rounded=0;whiteSpace=wrap;html=1;hachureGap=4;fontFamily=Architects Daughter;fontSource=https%3A%2F%2Ffonts.googleapis.com%2Fcss%3Ffamily%3DArchitects%2BDaughter;fontSize=20;" vertex="1" parent="WIyWlLk6GJQsqaUBKTNV-1">
          <mxGeometry x="180" y="640" width="120" height="60" as="geometry" />
        </mxCell>
        <mxCell id="ciXfzytu2ipYOKKYLOWv-53" style="edgeStyle=orthogonalEdgeStyle;rounded=0;hachureGap=4;orthogonalLoop=1;jettySize=auto;html=1;fontFamily=Architects Daughter;fontSource=https%3A%2F%2Ffonts.googleapis.com%2Fcss%3Ffamily%3DArchitects%2BDaughter;fontSize=16;" edge="1" parent="WIyWlLk6GJQsqaUBKTNV-1" source="ciXfzytu2ipYOKKYLOWv-52">
          <mxGeometry relative="1" as="geometry">
            <mxPoint x="240" y="640" as="targetPoint" />
            <Array as="points">
              <mxPoint x="240" y="590" />
            </Array>
          </mxGeometry>
        </mxCell>
        <mxCell id="ciXfzytu2ipYOKKYLOWv-54" style="edgeStyle=orthogonalEdgeStyle;rounded=0;hachureGap=4;orthogonalLoop=1;jettySize=auto;html=1;fontFamily=Architects Daughter;fontSource=https%3A%2F%2Ffonts.googleapis.com%2Fcss%3Ffamily%3DArchitects%2BDaughter;fontSize=16;" edge="1" parent="WIyWlLk6GJQsqaUBKTNV-1" source="ciXfzytu2ipYOKKYLOWv-52">
          <mxGeometry relative="1" as="geometry">
            <mxPoint x="620" y="650" as="targetPoint" />
            <Array as="points">
              <mxPoint x="620" y="590" />
            </Array>
          </mxGeometry>
        </mxCell>
        <mxCell id="ciXfzytu2ipYOKKYLOWv-52" value="&lt;font style=&quot;font-size: 15px;&quot;&gt;Перевірка на помилку&lt;/font&gt;" style="shape=hexagon;perimeter=hexagonPerimeter2;whiteSpace=wrap;html=1;fixedSize=1;hachureGap=4;fontFamily=Architects Daughter;fontSource=https%3A%2F%2Ffonts.googleapis.com%2Fcss%3Ffamily%3DArchitects%2BDaughter;fontSize=20;" vertex="1" parent="WIyWlLk6GJQsqaUBKTNV-1">
          <mxGeometry x="380" y="540" width="120" height="80" as="geometry" />
        </mxCell>
        <mxCell id="ciXfzytu2ipYOKKYLOWv-60" style="edgeStyle=orthogonalEdgeStyle;rounded=0;hachureGap=4;orthogonalLoop=1;jettySize=auto;html=1;entryX=1;entryY=0.625;entryDx=0;entryDy=0;entryPerimeter=0;fontFamily=Architects Daughter;fontSource=https%3A%2F%2Ffonts.googleapis.com%2Fcss%3Ffamily%3DArchitects%2BDaughter;fontSize=16;exitX=0.494;exitY=1.061;exitDx=0;exitDy=0;exitPerimeter=0;" edge="1" parent="WIyWlLk6GJQsqaUBKTNV-1" source="ciXfzytu2ipYOKKYLOWv-28">
          <mxGeometry relative="1" as="geometry">
            <mxPoint x="620" y="520" as="sourcePoint" />
            <mxPoint x="500" y="580" as="targetPoint" />
            <Array as="points">
              <mxPoint x="619" y="580" />
            </Array>
          </mxGeometry>
        </mxCell>
        <mxCell id="ciXfzytu2ipYOKKYLOWv-61" value="&lt;font style=&quot;font-size: 15px;&quot;&gt;Перевірка на помилку&lt;/font&gt;" style="shape=hexagon;perimeter=hexagonPerimeter2;whiteSpace=wrap;html=1;fixedSize=1;hachureGap=4;fontFamily=Architects Daughter;fontSource=https%3A%2F%2Ffonts.googleapis.com%2Fcss%3Ffamily%3DArchitects%2BDaughter;fontSize=20;" vertex="1" parent="WIyWlLk6GJQsqaUBKTNV-1">
          <mxGeometry x="375" y="750" width="120" height="80" as="geometry" />
        </mxCell>
      </root>
    </mxGraphModel>
  </diagram>
</mxfile>
